<?xml version="1.0" encoding="UTF-8"?>
<!DOCTYPE svg PUBLIC "-//W3C//DTD SVG 1.1//EN" "http://www.w3.org/Graphics/SVG/1.1/DTD/svg11.dtd">
<svg xmlns="http://www.w3.org/2000/svg" version="1.1" width="205px" height="383px" style="shape-rendering:geometricPrecision; text-rendering:geometricPrecision; image-rendering:optimizeQuality; fill-rule:evenodd; clip-rule:evenodd" xmlns:xlink="http://www.w3.org/1999/xlink">
<g><path style="opacity:1" fill="#6d6a6b" d="M 58.5,-0.5 C 66.8333,-0.5 75.1667,-0.5 83.5,-0.5C 84.2484,10.4076 85.5817,21.2409 87.5,32C 75.9308,53.6961 63.4308,74.8628 50,95.5C 49.3333,96.8333 49.3333,98.1667 50,99.5C 52.1761,102.529 54.3427,105.529 56.5,108.5C 56.5299,109.497 56.0299,110.164 55,110.5C 51.3686,107.239 48.202,103.572 45.5,99.5C 40.5976,97.9568 35.931,98.4568 31.5,101C 27.105,106.907 27.7716,112.24 33.5,117C 40.9408,121.553 48.9408,124.719 57.5,126.5C 57.2114,120.409 57.5447,114.409 58.5,108.5C 66.1505,105.01 74.1505,104.176 82.5,106C 85.361,117.327 87.5277,128.827 89,140.5C 95,141.167 101,141.833 107,142.5C 107.827,156.673 107.661,170.673 106.5,184.5C 105.167,184.5 103.833,184.5 102.5,184.5C 100.833,183.167 99.1667,183.167 97.5,184.5C 96.5,184.5 95.5,184.5 94.5,184.5C 93.7784,184.082 93.2784,183.416 93,182.5C 92.1086,173.521 90.6086,164.687 88.5,156C 82.2884,157.148 75.955,157.982 69.5,158.5C 66.5457,158.709 63.879,158.042 61.5,156.5C 59.0147,147.694 57.6814,138.694 57.5,129.5C 46.9179,127.408 37.2512,123.241 28.5,117C 27.3333,115.167 26.1667,113.333 25,111.5C 25.1945,108.118 25.0278,104.785 24.5,101.5C 34.6264,77.2389 46.7931,54.2389 61,32.5C 62.6667,30.8333 64.3333,29.1667 66,27.5C 66.6667,25.8333 66.6667,24.1667 66,22.5C 63.3932,14.8466 60.8932,7.17993 58.5,-0.5 Z"/></g>
<g><path style="opacity:1" fill="#faf9f9" d="M 69.5,107.5 C 73.5483,107.395 77.5483,107.728 81.5,108.5C 83.1829,123.225 85.1829,137.892 87.5,152.5C 80.3469,154.747 73.0135,155.58 65.5,155C 64.572,154.612 63.9054,153.945 63.5,153C 61.9061,147.298 61.0727,141.464 61,135.5C 60.5003,127.173 60.3336,118.84 60.5,110.5C 63.6702,109.735 66.6702,108.735 69.5,107.5 Z"/></g>
<g><path style="opacity:1" fill="#f7f6f7" d="M 56.5,108.5 C 57.1667,108.5 57.8333,108.5 58.5,108.5C 57.5447,114.409 57.2114,120.409 57.5,126.5C 48.9408,124.719 40.9408,121.553 33.5,117C 27.7716,112.24 27.105,106.907 31.5,101C 35.931,98.4568 40.5976,97.9568 45.5,99.5C 48.202,103.572 51.3686,107.239 55,110.5C 56.0299,110.164 56.5299,109.497 56.5,108.5 Z"/></g>
<g><path style="opacity:1" fill="#bbb7b8" d="M 30.5,95.5 C 30.3284,96.4916 30.6618,97.1583 31.5,97.5C 30.8783,98.6266 30.045,99.6266 29,100.5C 28.4014,98.4652 28.9014,96.7985 30.5,95.5 Z"/></g>
<g><path style="opacity:1" fill="#f9f8f8" d="M 31.5,97.5 C 30.6618,97.1583 30.3284,96.4916 30.5,95.5C 39.1312,75.3662 49.2979,56.0329 61,37.5C 64.8318,30.5006 70.6651,27.6672 78.5,29C 79.3041,30.7713 80.4708,32.2713 82,33.5C 82.6667,35.1667 82.6667,36.8333 82,38.5C 70.4031,56.6986 59.0698,75.0319 48,93.5C 47.5,94 47,94.5 46.5,95C 41.2944,95.1809 36.2944,96.0143 31.5,97.5 Z"/></g>
<g><path style="opacity:1" fill="#c8c2c4" d="M 82.5,19.5 C 83.8056,22.6868 83.8056,26.0202 82.5,29.5C 81.1451,28.8118 80.1451,27.8118 79.5,26.5C 80.4959,26.4142 81.3292,26.7476 82,27.5C 82.4974,24.854 82.6641,22.1873 82.5,19.5 Z"/></g>
<g><path style="opacity:1" fill="#faf9f9" d="M 82.5,19.5 C 82.6641,22.1873 82.4974,24.854 82,27.5C 81.3292,26.7476 80.4959,26.4142 79.5,26.5C 76.3752,25.5206 73.0419,25.1872 69.5,25.5C 67.9478,17.6315 65.6144,9.96482 62.5,2.5C 68.7985,1.50367 75.1318,1.17033 81.5,1.5C 81.3599,7.53619 81.6932,13.5362 82.5,19.5 Z"/></g>
<g><path style="opacity:1" fill="#faf8f9" d="M 90.5,144.5 C 95.1667,144.5 99.8333,144.5 104.5,144.5C 104.5,156.833 104.5,169.167 104.5,181.5C 101.5,181.5 98.5,181.5 95.5,181.5C 94.1558,169.105 92.4891,156.771 90.5,144.5 Z"/></g>
<g><path style="opacity:1" fill="#c07375" d="M 102.5,184.5 C 101.521,187.625 101.187,190.958 101.5,194.5C 99.8333,194.5 98.1667,194.5 96.5,194.5C 97.2071,191.214 97.5405,187.881 97.5,184.5C 99.1667,183.167 100.833,183.167 102.5,184.5 Z"/></g>
<g><path style="opacity:0.498" fill="#cb9596" d="M 102.5,184.5 C 103.833,184.5 105.167,184.5 106.5,184.5C 105.791,185.404 104.791,185.737 103.5,185.5C 103.142,188.689 102.475,191.689 101.5,194.5C 101.187,190.958 101.521,187.625 102.5,184.5 Z"/></g>
<g><path style="opacity:1" fill="#c69294" d="M 94.5,184.5 C 95.5,184.5 96.5,184.5 97.5,184.5C 97.5405,187.881 97.2071,191.214 96.5,194.5C 98.1667,194.5 99.8333,194.5 101.5,194.5C 100.226,197.635 98.0597,198.635 95,197.5C 94.3058,193.998 94.8058,190.664 96.5,187.5C 96.0576,186.261 95.3909,185.261 94.5,184.5 Z"/></g>
<g><path style="opacity:0.875" fill="#cfabaa" d="M 103.5,203.5 C 102.542,203.047 101.708,202.381 101,201.5C 100.184,202.823 99.0174,203.489 97.5,203.5C 99.9925,198.523 101.992,198.523 103.5,203.5 Z"/></g>
<g><path style="opacity:1" fill="#615f5e" d="M 107.5,204.5 C 110.939,204.253 114.272,204.586 117.5,205.5C 117.611,206.117 117.944,206.617 118.5,207C 116.19,207.497 113.857,207.663 111.5,207.5C 109.167,207.5 106.833,207.5 104.5,207.5C 104.5,206.5 104.5,205.5 104.5,204.5C 105.5,204.5 106.5,204.5 107.5,204.5 Z"/></g>
<g><path style="opacity:1" fill="#f4f2f3" d="M 96.5,206.5 C 95.5392,209.426 94.8726,212.426 94.5,215.5C 80.5374,213.961 67.204,215.961 54.5,221.5C 53.9344,219.922 52.9344,218.588 51.5,217.5C 48.5988,220.387 45.2655,221.387 41.5,220.5C 41.9528,219.542 42.6195,218.708 43.5,218C 60.0831,209.545 77.7498,205.712 96.5,206.5 Z"/></g>
<g><path style="opacity:1" fill="#f6f5f6" d="M 104.5,207.5 C 106.833,207.5 109.167,207.5 111.5,207.5C 124.908,208.858 137.241,213.191 148.5,220.5C 147.761,220.369 147.094,220.536 146.5,221C 149.26,223.903 148.76,224.736 145,223.5C 143.775,223.862 142.609,224.362 141.5,225C 143.037,226.11 143.703,227.61 143.5,229.5C 139.361,225.924 134.694,223.091 129.5,221C 120.705,218.276 111.705,216.776 102.5,216.5C 102.077,215.735 101.743,214.902 101.5,214C 101.706,211.27 102.706,209.103 104.5,207.5 Z"/></g>
<g><path style="opacity:1" fill="#b97776" d="M 103.5,203.5 C 105.099,203.232 106.432,203.566 107.5,204.5C 106.5,204.5 105.5,204.5 104.5,204.5C 104.5,205.5 104.5,206.5 104.5,207.5C 102.706,209.103 101.706,211.27 101.5,214C 101.743,214.902 102.077,215.735 102.5,216.5C 101.325,216.281 100.325,216.614 99.5,217.5C 104.019,218.26 108.353,219.26 112.5,220.5C 100.227,220.659 87.8934,220.826 75.5,221C 70.0098,222.889 64.3432,223.722 58.5,223.5C 58.6107,222.883 58.944,222.383 59.5,222C 62.8333,221 66.1667,220 69.5,219C 78.1961,218.383 86.5294,217.216 94.5,215.5C 94.8726,212.426 95.5392,209.426 96.5,206.5C 97.404,205.791 97.7373,204.791 97.5,203.5C 99.0174,203.489 100.184,202.823 101,201.5C 101.708,202.381 102.542,203.047 103.5,203.5 Z"/></g>
<g><path style="opacity:1" fill="#696666" d="M 97.5,203.5 C 97.7373,204.791 97.404,205.791 96.5,206.5C 77.7498,205.712 60.0831,209.545 43.5,218C 42.6195,218.708 41.9528,219.542 41.5,220.5C 34.5492,224.117 29.2158,229.451 25.5,236.5C 24.6753,240.647 24.1753,244.981 24,249.5C 23.8138,246.964 23.3138,244.631 22.5,242.5C 22.029,238.126 23.029,234.126 25.5,230.5C 36.5604,217.464 50.5604,209.297 67.5,206C 77.4076,204.089 87.4076,203.256 97.5,203.5 Z"/></g>
<g><path style="opacity:1" fill="#fdfdfd" d="M 54.5,221.5 C 48.485,225.188 44.8184,230.521 43.5,237.5C 44.1849,241.908 46.5183,244.908 50.5,246.5C 52.1209,248.942 54.4542,250.275 57.5,250.5C 65.8551,253.63 74.5217,255.296 83.5,255.5C 90.6549,256.655 97.9882,256.822 105.5,256C 106.056,255.617 106.389,255.117 106.5,254.5C 119.444,253.015 131.777,249.515 143.5,244C 148.62,239.255 148.62,234.422 143.5,229.5C 143.703,227.61 143.037,226.11 141.5,225C 142.609,224.362 143.775,223.862 145,223.5C 148.76,224.736 149.26,223.903 146.5,221C 147.094,220.536 147.761,220.369 148.5,220.5C 154.739,224.235 160.239,228.902 165,234.5C 165.499,239.823 165.666,245.156 165.5,250.5C 164.777,274.77 157.61,296.77 144,316.5C 127.706,334.543 107.539,341.043 83.5,336C 71.2485,332.792 60.7485,326.625 52,317.5C 37.9849,298.794 29.4849,277.794 26.5,254.5C 25.6932,248.536 25.3599,242.536 25.5,236.5C 29.2158,229.451 34.5492,224.117 41.5,220.5C 45.2655,221.387 48.5988,220.387 51.5,217.5C 52.9344,218.588 53.9344,219.922 54.5,221.5 Z"/></g>
<g><path style="opacity:1" fill="#715a58" d="M 94.5,215.5 C 86.5294,217.216 78.1961,218.383 69.5,219C 66.1667,220 62.8333,221 59.5,222C 58.944,222.383 58.6107,222.883 58.5,223.5C 49.72,225.786 45.8867,231.452 47,240.5C 50.9367,245.386 56.1034,248.053 62.5,248.5C 80.8557,254.622 99.5223,255.122 118.5,250C 123.855,249.251 128.855,247.751 133.5,245.5C 134.609,245.443 135.609,245.11 136.5,244.5C 144.006,243.478 146.172,239.478 143,232.5C 139.358,228.352 134.858,225.686 129.5,224.5C 129.389,223.883 129.056,223.383 128.5,223C 124.213,221.847 119.879,221.013 115.5,220.5C 114.5,220.5 113.5,220.5 112.5,220.5C 108.353,219.26 104.019,218.26 99.5,217.5C 100.325,216.614 101.325,216.281 102.5,216.5C 111.705,216.776 120.705,218.276 129.5,221C 134.694,223.091 139.361,225.924 143.5,229.5C 148.62,234.422 148.62,239.255 143.5,244C 131.777,249.515 119.444,253.015 106.5,254.5C 98.8678,255.358 91.2011,255.691 83.5,255.5C 74.5217,255.296 65.8551,253.63 57.5,250.5C 55.4336,248.801 53.1003,247.468 50.5,246.5C 46.5183,244.908 44.1849,241.908 43.5,237.5C 44.8184,230.521 48.485,225.188 54.5,221.5C 67.204,215.961 80.5374,213.961 94.5,215.5 Z"/></g>
<g><path style="opacity:1" fill="#c77473" d="M 140.5,239.5 C 139.738,241.262 138.404,242.262 136.5,242.5C 134.63,237.797 131.297,234.63 126.5,233C 118.881,231.795 111.214,231.295 103.5,231.5C 92.3072,230.23 80.9739,230.397 69.5,232C 63.6649,234.358 57.9983,236.858 52.5,239.5C 53.038,237.883 53.3713,236.216 53.5,234.5C 60.0732,231.951 67.0732,230.451 74.5,230C 75.3366,228.989 75.67,227.822 75.5,226.5C 80.6817,226.443 80.6817,225.776 75.5,224.5C 75.8333,224.167 76.1667,223.833 76.5,223.5C 80.8554,225.967 86.1887,227.634 92.5,228.5C 102.8,229.706 113.134,230.54 123.5,231C 128.023,231.743 132.356,233.076 136.5,235C 137.733,236.667 139.067,238.167 140.5,239.5 Z"/></g>
<g><path style="opacity:1" fill="#d68e8d" d="M 103.5,231.5 C 87.3182,233.777 71.3182,236.444 55.5,239.5C 55.5,240.833 55.5,242.167 55.5,243.5C 57.1992,243.34 58.8659,243.506 60.5,244C 59.9558,244.717 59.2891,245.217 58.5,245.5C 55.8704,244.572 53.2037,243.572 50.5,242.5C 50.8627,241.817 51.1961,241.15 51.5,240.5C 52.1667,240.5 52.5,240.167 52.5,239.5C 57.9983,236.858 63.6649,234.358 69.5,232C 80.9739,230.397 92.3072,230.23 103.5,231.5 Z"/></g>
<g><path style="opacity:1" fill="#b3797a" d="M 129.5,224.5 C 134.858,225.686 139.358,228.352 143,232.5C 146.172,239.478 144.006,243.478 136.5,244.5C 136.5,243.833 136.5,243.167 136.5,242.5C 138.404,242.262 139.738,241.262 140.5,239.5C 141.586,239.38 142.253,238.713 142.5,237.5C 141.137,235.292 139.97,232.959 139,230.5C 136.696,228.932 134.196,227.765 131.5,227C 130.619,226.292 129.953,225.458 129.5,224.5 Z"/></g>
<g><path style="opacity:1" fill="#cb6f6e" d="M 112.5,220.5 C 113.5,220.5 114.5,220.5 115.5,220.5C 115.953,221.458 116.619,222.292 117.5,223C 121.44,224.015 125.44,224.515 129.5,224.5C 129.953,225.458 130.619,226.292 131.5,227C 134.196,227.765 136.696,228.932 139,230.5C 139.97,232.959 141.137,235.292 142.5,237.5C 142.253,238.713 141.586,239.38 140.5,239.5C 139.067,238.167 137.733,236.667 136.5,235C 132.356,233.076 128.023,231.743 123.5,231C 113.134,230.54 102.8,229.706 92.5,228.5C 86.1887,227.634 80.8554,225.967 76.5,223.5C 76.1667,223.833 75.8333,224.167 75.5,224.5C 80.6817,225.776 80.6817,226.443 75.5,226.5C 75.67,227.822 75.3366,228.989 74.5,230C 67.0732,230.451 60.0732,231.951 53.5,234.5C 53.3713,236.216 53.038,237.883 52.5,239.5C 52.5,240.167 52.1667,240.5 51.5,240.5C 49.1081,238.767 48.2748,236.434 49,233.5C 52.637,230.471 55.8037,227.137 58.5,223.5C 64.3432,223.722 70.0098,222.889 75.5,221C 87.8934,220.826 100.227,220.659 112.5,220.5 Z"/></g>
<g><path style="opacity:1" fill="#af7676" d="M 115.5,220.5 C 119.879,221.013 124.213,221.847 128.5,223C 129.056,223.383 129.389,223.883 129.5,224.5C 125.44,224.515 121.44,224.015 117.5,223C 116.619,222.292 115.953,221.458 115.5,220.5 Z"/></g>
<g><path style="opacity:1" fill="#f7f6f7" d="M 168.5,239.5 C 179.584,240.632 189.417,244.632 198,251.5C 204.894,264.818 201.727,274.984 188.5,282C 182.749,284.012 177.083,285.845 171.5,287.5C 168.167,287.833 164.833,288.167 161.5,288.5C 161.998,285.171 162.998,282.005 164.5,279C 168.186,278.441 171.853,277.774 175.5,277C 178.025,276.576 180.025,275.41 181.5,273.5C 183.017,273.489 184.184,272.823 185,271.5C 191.031,262.757 189.198,256.59 179.5,253C 175.848,252.501 172.182,252.335 168.5,252.5C 168.5,248.167 168.5,243.833 168.5,239.5 Z"/></g>
<g><path style="opacity:1" fill="#d39091" d="M 103.5,231.5 C 111.214,231.295 118.881,231.795 126.5,233C 131.297,234.63 134.63,237.797 136.5,242.5C 136.5,243.167 136.5,243.833 136.5,244.5C 135.609,245.11 134.609,245.443 133.5,245.5C 133.083,244.876 132.416,244.543 131.5,244.5C 108.882,252.018 85.8824,253.351 62.5,248.5C 60.9236,247.857 59.5903,246.857 58.5,245.5C 59.2891,245.217 59.9558,244.717 60.5,244C 58.8659,243.506 57.1992,243.34 55.5,243.5C 55.5,242.167 55.5,240.833 55.5,239.5C 71.3182,236.444 87.3182,233.777 103.5,231.5 Z"/></g>
<g><path style="opacity:1" fill="#bb8286" d="M 58.5,223.5 C 55.8037,227.137 52.637,230.471 49,233.5C 48.2748,236.434 49.1081,238.767 51.5,240.5C 51.1961,241.15 50.8627,241.817 50.5,242.5C 53.2037,243.572 55.8704,244.572 58.5,245.5C 59.5903,246.857 60.9236,247.857 62.5,248.5C 56.1034,248.053 50.9367,245.386 47,240.5C 45.8867,231.452 49.72,225.786 58.5,223.5 Z"/></g>
<g><path style="opacity:1" fill="#908786" d="M 50.5,246.5 C 53.1003,247.468 55.4336,248.801 57.5,250.5C 54.4542,250.275 52.1209,248.942 50.5,246.5 Z"/></g>
<g><path style="opacity:1" fill="#727070" d="M 117.5,205.5 C 139.12,208.303 156.453,218.303 169.5,235.5C 179.194,237.352 188.194,240.852 196.5,246C 200.037,248.94 202.703,252.44 204.5,256.5C 204.5,260.833 204.5,265.167 204.5,269.5C 202.473,273.708 199.806,277.541 196.5,281C 189.921,284.959 182.921,287.792 175.5,289.5C 175.918,288.778 176.584,288.278 177.5,288C 175.527,287.505 173.527,287.338 171.5,287.5C 177.083,285.845 182.749,284.012 188.5,282C 201.727,274.984 204.894,264.818 198,251.5C 189.417,244.632 179.584,240.632 168.5,239.5C 168.804,238.85 169.137,238.183 169.5,237.5C 169.154,236.304 168.654,236.304 168,237.5C 167.667,236.5 167.333,235.5 167,234.5C 166.827,240.016 166.327,245.349 165.5,250.5C 165.666,245.156 165.499,239.823 165,234.5C 160.239,228.902 154.739,224.235 148.5,220.5C 137.241,213.191 124.908,208.858 111.5,207.5C 113.857,207.663 116.19,207.497 118.5,207C 117.944,206.617 117.611,206.117 117.5,205.5 Z"/></g>
<g><path style="opacity:0.749" fill="#807c7d" d="M 25.5,236.5 C 25.3599,242.536 25.6932,248.536 26.5,254.5C 25.7784,254.082 25.2784,253.416 25,252.5C 24.5065,254.134 24.3398,255.801 24.5,257.5C 23.111,252.731 22.4443,247.731 22.5,242.5C 23.3138,244.631 23.8138,246.964 24,249.5C 24.1753,244.981 24.6753,240.647 25.5,236.5 Z"/></g>
<g><path style="opacity:1" fill="#be9092" d="M 133.5,245.5 C 128.855,247.751 123.855,249.251 118.5,250C 99.5223,255.122 80.8557,254.622 62.5,248.5C 85.8824,253.351 108.882,252.018 131.5,244.5C 132.416,244.543 133.083,244.876 133.5,245.5 Z"/></g>
<g><path style="opacity:1" fill="#6c696a" d="M 168.5,239.5 C 168.5,243.833 168.5,248.167 168.5,252.5C 172.182,252.335 175.848,252.501 179.5,253C 189.198,256.59 191.031,262.757 185,271.5C 184.184,272.823 183.017,273.489 181.5,273.5C 180.025,275.41 178.025,276.576 175.5,277C 171.853,277.774 168.186,278.441 164.5,279C 162.998,282.005 161.998,285.171 161.5,288.5C 164.833,288.167 168.167,287.833 171.5,287.5C 173.527,287.338 175.527,287.505 177.5,288C 176.584,288.278 175.918,288.778 175.5,289.5C 170.638,290.9 165.638,291.566 160.5,291.5C 158.559,297.657 156.226,303.657 153.5,309.5C 166.916,309.138 178.749,313.138 189,321.5C 197.58,335.212 196.08,347.712 184.5,359C 169.893,368.629 153.893,374.962 136.5,378C 126.722,379.742 117.056,381.242 107.5,382.5C 102.5,382.5 97.5,382.5 92.5,382.5C 72.5757,379.772 52.909,375.272 33.5,369C 21.9251,364.633 11.7584,358.133 3,349.5C 1.78739,347.075 0.620727,344.741 -0.5,342.5C -0.5,340.167 -0.5,337.833 -0.5,335.5C 2.365,326.122 8.365,319.288 17.5,315C 25.1115,311.854 32.7782,309.02 40.5,306.5C 31.6285,291.357 26.2952,275.023 24.5,257.5C 24.3398,255.801 24.5065,254.134 25,252.5C 25.2784,253.416 25.7784,254.082 26.5,254.5C 29.4849,277.794 37.9849,298.794 52,317.5C 60.7485,326.625 71.2485,332.792 83.5,336C 107.539,341.043 127.706,334.543 144,316.5C 157.61,296.77 164.777,274.77 165.5,250.5C 166.327,245.349 166.827,240.016 167,234.5C 167.333,235.5 167.667,236.5 168,237.5C 168.654,236.304 169.154,236.304 169.5,237.5C 169.137,238.183 168.804,238.85 168.5,239.5 Z M 181.5,273.5 C 180.504,273.586 179.671,273.252 179,272.5C 176.821,273.762 174.655,275.095 172.5,276.5C 171.522,276.023 170.689,275.357 170,274.5C 168.374,277.066 166.874,276.899 165.5,274C 166.802,268.421 167.469,262.921 167.5,257.5C 175.644,253.69 182.311,255.357 187.5,262.5C 184.711,265.745 182.711,269.412 181.5,273.5 Z"/></g>
<g><path style="opacity:1" fill="#d0c9c9" d="M 106.5,254.5 C 106.389,255.117 106.056,255.617 105.5,256C 97.9882,256.822 90.6549,256.655 83.5,255.5C 91.2011,255.691 98.8678,255.358 106.5,254.5 Z"/></g>
<g><path style="opacity:1" fill="#fcfcfc" d="M 45.5,313.5 C 46.0283,314.847 46.195,316.181 46,317.5C 36.077,320.443 34.2437,326.443 40.5,335.5C 45.5454,338.974 50.7121,342.308 56,345.5C 67.6291,349.153 79.4624,351.987 91.5,354C 101.532,354.713 111.532,354.379 121.5,353C 130.831,351.418 139.831,348.751 148.5,345C 151.427,342.618 154.261,340.118 157,337.5C 157.729,332.991 157.229,328.658 155.5,324.5C 151.793,323.314 148.46,321.647 145.5,319.5C 146.948,317.445 148.281,315.278 149.5,313C 161.188,312.004 172.188,314.338 182.5,320C 192.296,328.664 194.13,338.831 188,350.5C 181.267,358.117 173.1,363.617 163.5,367C 112.124,385.502 62.457,381.835 14.5,356C -1.5,344 -1.5,332 14.5,320C 22.9303,315.846 31.7637,312.679 41,310.5C 43.1829,310.522 44.6829,311.522 45.5,313.5 Z"/></g>
<g><path style="opacity:1" fill="#e5e5e5" d="M 45.5,313.5 C 67.2776,339.768 94.2776,346.601 126.5,334C 133.684,330.098 140.017,325.264 145.5,319.5C 148.46,321.647 151.793,323.314 155.5,324.5C 157.229,328.658 157.729,332.991 157,337.5C 154.261,340.118 151.427,342.618 148.5,345C 139.831,348.751 130.831,351.418 121.5,353C 111.532,354.379 101.532,354.713 91.5,354C 79.4624,351.987 67.6291,349.153 56,345.5C 50.7121,342.308 45.5454,338.974 40.5,335.5C 34.2437,326.443 36.077,320.443 46,317.5C 46.195,316.181 46.0283,314.847 45.5,313.5 Z"/></g>
</svg>
